<svg version="1.1" id="Layer_1" xmlns="http://www.w3.org/2000/svg" xmlns:xlink="http://www.w3.org/1999/xlink" x="0px" y="0px"
	 width="100%" viewBox="0 0 1366 768" enable-background="new 0 0 1366 768" xml:space="preserve">
<path fill="#000000" opacity="1.000000" stroke="none" 
	d="
M1.000000,615.000000 
	C1.000000,410.367371 1.000000,205.734711 1.000000,1.051035 
	C456.223633,1.051035 911.447266,1.051035 1367.000000,1.051035 
	C1367.000000,165.695892 1367.000000,330.391998 1366.652588,495.555725 
	C1363.353638,499.111145 1360.028809,501.924835 1357.522583,505.339386 
	C1350.656738,514.693665 1343.854980,524.118774 1337.542969,533.849915 
	C1327.881592,548.744690 1318.884155,564.071533 1309.157471,578.921936 
	C1302.619019,588.904663 1293.220459,596.078430 1283.419922,602.731201 
	C1271.665649,610.710083 1258.627197,615.628540 1244.927856,618.690613 
	C1233.841187,621.168579 1222.736572,623.922119 1211.143921,623.180542 
	C1207.956299,622.976746 1204.697998,624.161987 1201.450439,624.505005 
	C1199.501343,624.710815 1197.494751,624.673645 1195.541748,624.473755 
	C1192.130127,624.124573 1188.753174,623.378723 1185.337769,623.136475 
	C1179.426392,622.717224 1173.407715,623.107849 1167.593140,622.171326 
	C1155.501343,620.223877 1143.498779,617.704407 1131.486084,615.288025 
	C1102.538574,609.465271 1073.636108,603.413025 1044.648315,597.799622 
	C1036.770996,596.274170 1028.665039,595.400024 1020.646667,595.265930 
	C1010.398376,595.094421 1000.102539,595.627686 989.883423,596.509460 
	C981.175293,597.260803 972.237305,597.912109 963.949280,600.419861 
	C948.065796,605.225769 931.987427,610.088013 917.059204,617.178284 
	C896.996216,626.707153 877.749146,638.029297 858.512085,649.201904 
	C835.810364,662.386658 813.574036,676.369873 790.985474,689.753052 
	C770.638245,701.808105 749.746399,712.855408 726.873596,719.409241 
	C713.712463,723.180420 700.230469,725.069336 686.480286,723.146973 
	C667.630310,720.511536 651.110596,711.984375 634.967590,702.580139 
	C616.322327,691.718079 598.322815,679.859253 578.069580,671.738586 
	C560.694031,664.771729 542.672485,661.818298 524.434204,660.356628 
	C511.148895,659.291870 497.595367,660.105164 484.276489,661.331421 
	C470.312347,662.617065 456.381531,664.874573 442.620392,667.628113 
	C413.804138,673.394165 385.122162,679.827942 356.359680,685.866821 
	C334.185028,690.522583 311.882111,694.229126 289.106750,694.064636 
	C287.507690,694.053101 285.917633,694.826172 284.297821,695.046509 
	C282.867615,695.241089 281.387543,695.323547 279.954620,695.188477 
	C277.352112,694.943237 274.777374,694.404175 272.175018,694.156433 
	C263.500458,693.330566 254.762619,692.969421 246.149918,691.729492 
	C216.209564,687.418884 190.806335,672.765503 165.947922,656.599365 
	C150.240540,646.384399 134.082855,636.780701 117.622322,627.831299 
	C104.964752,620.949585 90.725609,617.864624 76.452232,617.334290 
	C57.336956,616.624023 38.162582,617.667236 19.017908,617.490051 
	C13.004775,617.434387 7.005578,615.872498 1.000000,615.000000 
z"/>
<path fill="#493977" opacity="1.000000" stroke="none" 
	d="
M1.000000,615.468628 
	C7.005578,615.872498 13.004775,617.434387 19.017908,617.490051 
	C38.162582,617.667236 57.336956,616.624023 76.452232,617.334290 
	C90.725609,617.864624 104.964752,620.949585 117.622322,627.831299 
	C134.082855,636.780701 150.240540,646.384399 165.947922,656.599365 
	C190.806335,672.765503 216.209564,687.418884 246.149918,691.729492 
	C254.762619,692.969421 263.500458,693.330566 272.175018,694.156433 
	C274.777374,694.404175 277.352112,694.943237 279.954620,695.188477 
	C281.387543,695.323547 282.867615,695.241089 284.297821,695.046509 
	C285.917633,694.826172 287.507690,694.053101 289.106750,694.064636 
	C311.882111,694.229126 334.185028,690.522583 356.359680,685.866821 
	C385.122162,679.827942 413.804138,673.394165 442.620392,667.628113 
	C456.381531,664.874573 470.312347,662.617065 484.276489,661.331421 
	C497.595367,660.105164 511.148895,659.291870 524.434204,660.356628 
	C542.672485,661.818298 560.694031,664.771729 578.069580,671.738586 
	C598.322815,679.859253 616.322327,691.718079 634.967590,702.580139 
	C651.110596,711.984375 667.630310,720.511536 686.480286,723.146973 
	C700.230469,725.069336 713.712463,723.180420 726.873596,719.409241 
	C749.746399,712.855408 770.638245,701.808105 790.985474,689.753052 
	C813.574036,676.369873 835.810364,662.386658 858.512085,649.201904 
	C877.749146,638.029297 896.996216,626.707153 917.059204,617.178284 
	C931.987427,610.088013 948.065796,605.225769 963.949280,600.419861 
	C972.237305,597.912109 981.175293,597.260803 989.883423,596.509460 
	C1000.102539,595.627686 1010.398376,595.094421 1020.646667,595.265930 
	C1028.665039,595.400024 1036.770996,596.274170 1044.648315,597.799622 
	C1073.636108,603.413025 1102.538574,609.465271 1131.486084,615.288025 
	C1143.498779,617.704407 1155.501343,620.223877 1167.593140,622.171326 
	C1173.407715,623.107849 1179.426392,622.717224 1185.337769,623.136475 
	C1188.753174,623.378723 1192.130127,624.124573 1195.541748,624.473755 
	C1197.494751,624.673645 1199.501343,624.710815 1201.450439,624.505005 
	C1204.697998,624.161987 1207.956299,622.976746 1211.143921,623.180542 
	C1222.736572,623.922119 1233.841187,621.168579 1244.927856,618.690613 
	C1258.627197,615.628540 1271.665649,610.710083 1283.419922,602.731201 
	C1293.220459,596.078430 1302.619019,588.904663 1309.157471,578.921936 
	C1318.884155,564.071533 1327.881592,548.744690 1337.542969,533.849915 
	C1343.854980,524.118774 1350.656738,514.693665 1357.522583,505.339386 
	C1360.028809,501.924835 1363.353638,499.111145 1366.652588,496.011658 
	C1367.000000,586.977783 1367.000000,677.955566 1367.000000,768.950073 
	C911.666687,768.950073 456.333344,768.950073 1.000000,768.950073 
	C1.000000,717.912537 1.000000,666.924927 1.000000,615.468628 
z"/>
</svg>